<svg width="222" height="27" viewBox="0 0 222 27" fill="none" xmlns="http://www.w3.org/2000/svg">
<path d="M1.18562 5.28741C1.95468 3.87748 3.04417 2.75595 4.4541 1.98689C5.86403 1.1858 7.43418 0.80127 9.22864 0.80127C11.4076 0.80127 13.2662 1.37806 14.8043 2.53164C16.3424 3.68522 17.3998 5.25537 17.9125 7.21005H12.9778C12.6253 6.44099 12.0805 5.8642 11.4397 5.44763C10.7667 5.06311 9.99769 4.8388 9.16455 4.8388C7.78666 4.8388 6.66513 5.31946 5.83199 6.28077C4.9668 7.24209 4.55023 8.52384 4.55023 10.126C4.55023 11.7282 4.9668 13.01 5.83199 13.9713C6.69717 14.9326 7.78666 15.4133 9.16455 15.4133C10.0297 15.4133 10.7667 15.221 11.4397 14.8044C12.1126 14.4199 12.6253 13.8111 12.9778 13.042H17.8805C17.3678 15.0288 16.3103 16.5989 14.7722 17.7204C13.2341 18.874 11.3756 19.4188 9.19659 19.4188C7.43418 19.4188 5.83199 19.0342 4.42206 18.2331C3.04417 17.4641 1.95468 16.3426 1.18562 14.9326C0.384527 13.5227 0 11.9205 0 10.126C0 8.29954 0.384527 6.69734 1.18562 5.28741Z" fill="#344B63"/>
<path d="M23.392 18.5855C22.2385 17.9767 21.3733 17.1115 20.7003 15.99C20.0595 14.8684 19.707 13.5546 19.707 12.0165C19.707 10.5105 20.0274 9.19666 20.7003 8.07512C21.3733 6.92154 22.2705 6.05636 23.4241 5.44752C24.5777 4.83869 25.8594 4.55029 27.2693 4.55029C28.6793 4.55029 29.9931 4.83869 31.1146 5.44752C32.2682 6.05636 33.1654 6.92154 33.8383 8.07512C34.5113 9.2287 34.8317 10.5425 34.8317 12.0165C34.8317 13.5226 34.5113 14.8364 33.8383 15.9579C33.1654 17.1115 32.2682 17.9767 31.1146 18.5855C29.961 19.1943 28.6793 19.4827 27.2373 19.4827C25.8274 19.5148 24.5456 19.1943 23.392 18.5855ZM29.4163 14.7082C30.0251 14.0673 30.3135 13.2021 30.3135 12.0165C30.3135 10.8629 30.0251 9.96571 29.4483 9.32483C28.8715 8.68395 28.1345 8.39556 27.3014 8.39556C26.4362 8.39556 25.6992 8.716 25.1224 9.32483C24.5456 9.93366 24.2572 10.8309 24.2572 12.0165C24.2572 13.1701 24.5456 14.0673 25.0904 14.7082C25.6672 15.3491 26.3721 15.6375 27.2053 15.6375C28.1025 15.6375 28.8395 15.317 29.4163 14.7082Z" fill="#344B63"/>
<path d="M37.2029 8.04308C37.7797 6.92154 38.5488 6.05636 39.5101 5.44752C40.4714 4.83869 41.5609 4.55029 42.7786 4.55029C43.804 4.55029 44.7012 4.7746 45.4703 5.19117C46.2393 5.60774 46.8482 6.15249 47.2647 6.82541V4.7746H51.7188V19.3225H47.2647V17.2717C46.8161 17.9446 46.2393 18.4894 45.4382 18.906C44.6692 19.3225 43.7719 19.5468 42.7465 19.5468C41.5609 19.5468 40.4714 19.2264 39.5101 18.6176C38.5488 18.0087 37.7797 17.1115 37.2029 15.99C36.6262 14.8364 36.3698 13.5226 36.3698 12.0486C36.3378 10.5105 36.6262 9.19666 37.2029 8.04308ZM46.3355 9.38892C45.7266 8.74804 44.9576 8.4276 44.0924 8.4276C43.1952 8.4276 42.4581 8.74804 41.8493 9.38892C41.2405 10.0298 40.92 10.895 40.92 12.0165C40.92 13.1381 41.2405 14.0032 41.8493 14.6762C42.4581 15.317 43.2272 15.6695 44.0924 15.6695C44.9896 15.6695 45.7266 15.3491 46.3355 14.7082C46.9443 14.0673 47.2647 13.2021 47.2647 12.0806C47.2647 10.9591 46.9443 10.0298 46.3355 9.38892Z" fill="#344B63"/>
<path d="M54.9873 8.04308C55.5961 6.92154 56.4613 6.05636 57.5829 5.44752C58.6723 4.83869 59.9541 4.55029 61.364 4.55029C63.1905 4.55029 64.7286 5.03095 65.9463 5.99227C67.164 6.95358 67.9651 8.29943 68.3496 10.0298H63.6071C63.2226 8.90826 62.4215 8.36351 61.2999 8.36351C60.4668 8.36351 59.8259 8.68395 59.3453 9.32483C58.8646 9.96571 58.6083 10.8629 58.6083 12.0486C58.6083 13.2342 58.8646 14.1314 59.3453 14.7723C59.8259 15.4132 60.4989 15.7336 61.2999 15.7336C62.4535 15.7336 63.2226 15.1889 63.6071 14.0673H68.3496C67.9651 15.7657 67.164 17.1115 65.9143 18.0728C64.6646 19.0341 63.1585 19.5468 61.364 19.5468C59.9541 19.5468 58.6723 19.2584 57.5829 18.6496C56.4934 18.0408 55.6282 17.1756 54.9873 16.054C54.3785 14.9325 54.058 13.6187 54.058 12.0806C54.058 10.5425 54.3464 9.19666 54.9873 8.04308Z" fill="#344B63"/>
<path d="M83.6666 6.24856C84.6599 7.33805 85.1726 8.87615 85.1726 10.7988V19.2904H80.7506V11.4076C80.7506 10.4463 80.4942 9.67725 79.9815 9.13251C79.4688 8.58776 78.7959 8.33141 77.9628 8.33141C77.0976 8.33141 76.4247 8.58776 75.944 9.13251C75.4313 9.67725 75.175 10.4143 75.175 11.4076V19.3225H70.7208V0H75.175V6.69717C75.6236 6.05629 76.2324 5.54359 77.0335 5.15906C77.8025 4.77454 78.6998 4.58227 79.6611 4.58227C81.3274 4.58227 82.6732 5.12702 83.6666 6.24856Z" fill="#344B63"/>
<path d="M104.431 16.0538H97.6057L96.5162 19.2902H91.8378L98.4708 0.993164H103.63L110.263 19.2902H105.553L104.431 16.0538ZM103.277 12.6251L101.002 5.92792L98.7592 12.6251H103.277Z" fill="#00C49A"/>
<path d="M112.314 8.04308C112.923 6.92154 113.788 6.05636 114.909 5.44752C115.999 4.83869 117.281 4.55029 118.691 4.55029C120.517 4.55029 122.055 5.03095 123.273 5.99227C124.49 6.95358 125.292 8.29943 125.676 10.0298H120.934C120.549 8.90826 119.748 8.36351 118.626 8.36351C117.793 8.36351 117.152 8.68395 116.672 9.32483C116.191 9.96571 115.935 10.8629 115.935 12.0486C115.935 13.2342 116.191 14.1314 116.672 14.7723C117.152 15.4132 117.825 15.7336 118.626 15.7336C119.78 15.7336 120.549 15.1889 120.934 14.0673H125.676C125.292 15.7657 124.49 17.1115 123.241 18.0728C121.991 19.0341 120.485 19.5468 118.691 19.5468C117.281 19.5468 115.999 19.2584 114.909 18.6496C113.82 18.0408 112.955 17.1756 112.314 16.054C111.705 14.9325 111.385 13.6187 111.385 12.0806C111.385 10.5425 111.673 9.19666 112.314 8.04308Z" fill="#00C49A"/>
<path d="M127.983 8.04308C128.56 6.92154 129.329 6.05636 130.29 5.44752C131.252 4.83869 132.341 4.55029 133.559 4.55029C134.584 4.55029 135.482 4.7746 136.251 5.19117C137.02 5.60774 137.628 6.15249 138.045 6.82541V4.7746H142.499V19.3225H138.045V17.2717C137.596 17.9446 137.02 18.4894 136.219 18.906C135.449 19.3225 134.552 19.5468 133.527 19.5468C132.341 19.5468 131.252 19.2264 130.29 18.6176C129.329 18.0087 128.56 17.1115 127.983 15.99C127.406 14.8364 127.15 13.5226 127.15 12.0486C127.15 10.5105 127.438 9.19666 127.983 8.04308ZM137.116 9.38892C136.507 8.74804 135.738 8.4276 134.873 8.4276C134.007 8.4276 133.238 8.74804 132.63 9.38892C132.021 10.0298 131.7 10.895 131.7 12.0165C131.7 13.1381 132.021 14.0032 132.63 14.6762C133.238 15.317 134.007 15.6695 134.873 15.6695C135.738 15.6695 136.507 15.3491 137.116 14.7082C137.725 14.0673 138.045 13.2021 138.045 12.0806C138.045 10.9591 137.725 10.0298 137.116 9.38892Z" fill="#00C49A"/>
<path d="M145.704 8.04301C146.28 6.92148 147.049 6.05629 148.011 5.44746C148.972 4.83863 150.061 4.55023 151.279 4.55023C152.24 4.55023 153.106 4.74249 153.907 5.15906C154.708 5.54359 155.317 6.08834 155.765 6.76126V0H160.219V19.2904H155.765V17.2076C155.349 17.9125 154.74 18.4573 153.971 18.8738C153.202 19.2904 152.305 19.5147 151.279 19.5147C150.094 19.5147 149.004 19.1943 148.011 18.5855C147.049 17.9766 146.28 17.0794 145.704 15.9579C145.127 14.8043 144.87 13.4905 144.87 12.0165C144.838 10.5104 145.127 9.19659 145.704 8.04301ZM154.836 9.38886C154.227 8.74798 153.458 8.42754 152.593 8.42754C151.696 8.42754 150.959 8.74798 150.35 9.38886C149.741 10.0297 149.421 10.8949 149.421 12.0165C149.421 13.138 149.741 14.0032 150.35 14.6761C150.959 15.317 151.728 15.6695 152.593 15.6695C153.49 15.6695 154.227 15.349 154.836 14.7081C155.445 14.0673 155.765 13.2021 155.765 12.0805C155.765 10.959 155.445 10.0297 154.836 9.38886Z" fill="#00C49A"/>
<path d="M177.074 13.074H166.981C167.045 13.9712 167.333 14.6762 167.846 15.1568C168.359 15.6375 168.999 15.8618 169.736 15.8618C170.858 15.8618 171.627 15.3811 172.044 14.4519H176.786C176.53 15.4132 176.113 16.2784 175.472 17.0474C174.831 17.8165 174.03 18.4253 173.101 18.8419C172.14 19.2905 171.082 19.4827 169.897 19.4827C168.487 19.4827 167.205 19.1943 166.083 18.5855C164.962 17.9767 164.097 17.1115 163.488 15.99C162.847 14.8684 162.559 13.5546 162.559 12.0165C162.559 10.4784 162.879 9.19666 163.488 8.04308C164.097 6.92154 164.962 6.05636 166.083 5.44752C167.205 4.83869 168.487 4.55029 169.929 4.55029C171.339 4.55029 172.588 4.83869 173.678 5.44752C174.767 6.02431 175.633 6.8895 176.241 7.97899C176.85 9.06848 177.171 10.3502 177.171 11.8243C177.171 12.2088 177.139 12.6253 177.074 13.074ZM172.588 10.6066C172.588 9.83753 172.332 9.2287 171.819 8.78009C171.307 8.33147 170.634 8.10716 169.865 8.10716C169.128 8.10716 168.487 8.33147 167.974 8.74804C167.461 9.19666 167.141 9.80549 167.013 10.6066H172.588Z" fill="#00C49A"/>
<path d="M202.389 6.21676C203.447 7.30625 203.991 8.84436 203.991 10.767V19.2586H199.569V11.4079C199.569 10.4786 199.313 9.74158 198.832 9.22888C198.352 8.71618 197.647 8.45983 196.781 8.45983C195.916 8.45983 195.243 8.71618 194.731 9.22888C194.25 9.74158 193.994 10.4786 193.994 11.4079V19.3227H189.572V11.4079C189.572 10.4786 189.315 9.74158 188.835 9.22888C188.354 8.71618 187.649 8.45983 186.784 8.45983C185.919 8.45983 185.246 8.71618 184.733 9.22888C184.252 9.74158 183.996 10.4786 183.996 11.4079V19.3227H179.542V4.74274H183.996V6.56924C184.445 5.96041 185.053 5.47975 185.758 5.12727C186.495 4.77478 187.329 4.58252 188.226 4.58252C189.315 4.58252 190.309 4.80683 191.174 5.28748C192.039 5.76814 192.712 6.44106 193.193 7.30625C193.705 6.50515 194.378 5.86427 195.243 5.35157C196.109 4.83887 197.07 4.58252 198.095 4.58252C199.89 4.58252 201.332 5.12727 202.389 6.21676Z" fill="#00C49A"/>
<path d="M222 4.74268L212.867 26.2121H208.061L211.393 18.8099L205.465 4.74268H210.432L213.797 13.8431L217.129 4.74268H222Z" fill="#00C49A"/>
</svg>
