<svg width="16" height="16" viewBox="0 0 16 16" fill="none" xmlns="http://www.w3.org/2000/svg">
<g clip-path="url(#clip0)">
<path d="M11.7694 4.81504H11.7694C10.8821 4.67182 9.99555 4.89695 9.27334 5.44879C8.52368 6.02163 7.4764 6.02163 6.72669 5.44879C6.14647 5.00542 5.46019 4.77295 4.7526 4.77295C4.57948 4.77295 4.40507 4.78686 4.23064 4.81501C2.41302 5.10823 1.16721 6.87329 1.45355 8.74962C1.97443 12.1628 2.96161 14.4856 4.30845 15.4671C4.93826 15.9259 5.63426 16.086 6.43641 15.9567C6.928 15.8774 7.31631 15.6771 7.62362 15.3444C7.72062 15.2395 7.85706 15.1797 8 15.1797C8.14293 15.1797 8.2794 15.2394 8.37637 15.3444C8.68365 15.6771 9.07199 15.8774 9.56358 15.9567C10.3657 16.0862 11.0618 15.926 11.6915 15.4671C13.0384 14.4856 14.0256 12.1628 14.5464 8.74962C14.8328 6.87332 13.587 5.10826 11.7694 4.81504Z" fill="#344B63"/>
<path d="M11.7825 1.54366C11.6805 1.27976 11.3839 1.14841 11.1198 1.25051C11.0391 1.28172 9.76972 1.78644 8.76722 2.96472C8.72966 2.77925 8.67719 2.59253 8.60616 2.40747C8.00963 0.853508 6.37096 0.0796671 6.30149 0.0474484C6.17577 -0.0108013 6.0318 -0.0155826 5.90246 0.034011C5.77312 0.0836671 5.6694 0.183573 5.61493 0.31101C5.58484 0.381447 4.88487 2.05303 5.48137 3.607C5.53524 3.74728 5.59818 3.88059 5.66709 4.00818C6.26815 4.14124 6.83983 4.40628 7.34886 4.79521C7.73217 5.08818 8.26773 5.08818 8.6511 4.79521C8.74126 4.72634 8.83338 4.66137 8.92728 4.60031C9.19381 4.01484 9.61037 3.48515 10.1743 3.01834C10.8464 2.462 11.4842 2.20841 11.4894 2.20638C11.7533 2.10432 11.8846 1.80763 11.7825 1.54366Z" fill="#344B63"/>
</g>
<defs>
<clipPath id="clip0">
<rect width="16" height="16" fill="white"/>
</clipPath>
</defs>
</svg>
