<svg width="22" height="20" viewBox="0 0 22 20" fill="none" xmlns="http://www.w3.org/2000/svg">
<path d="M19.7192 1.86538H18.3381V0.77082C18.3381 0.455634 18.0802 0.197754 17.7651 0.197754C17.4499 0.197754 17.192 0.455634 17.192 0.77082V1.86538H11.5759V0.77082C11.5759 0.455634 11.3181 0.197754 11.0029 0.197754C10.6877 0.197754 10.4298 0.455634 10.4298 0.77082V1.86538H4.75645V0.77082C4.75645 0.455634 4.49857 0.197754 4.18338 0.197754C3.8682 0.197754 3.61032 0.455634 3.61032 0.77082V1.86538H2.28654C1.02579 1.86538 0 2.92555 0 4.18629V17.5101C0 18.7766 1.02006 19.8023 2.28654 19.8023H19.7135C20.98 19.8023 22 18.7766 22 17.5158V4.18629C22.0057 2.92555 20.98 1.86538 19.7192 1.86538ZM20.8596 17.5101C20.8596 18.1404 20.3553 18.6505 19.7249 18.6562H19.7192H2.28654C1.65616 18.6562 1.14613 18.1462 1.14613 17.5158V17.5101V4.18629C1.14613 3.55019 1.65616 3.01151 2.28654 3.01151H3.61032V3.84245C3.61032 4.15764 3.8682 4.41552 4.18338 4.41552C4.49857 4.41552 4.75645 4.15764 4.75645 3.84245V3.01151H10.4298V3.84245C10.4298 4.15764 10.6877 4.41552 11.0029 4.41552C11.3181 4.41552 11.5759 4.15764 11.5759 3.84245V3.01151H17.192V3.84245C17.192 4.15764 17.4499 4.41552 17.7651 4.41552C18.0802 4.41552 18.3381 4.15764 18.3381 3.84245V3.01151H19.7192C20.3553 3.01151 20.8596 3.55592 20.8596 4.18629V17.5101Z" fill="#344B63"/>
<path d="M9.49585 6.73633H8.49299C8.1778 6.73633 7.91992 6.99421 7.91992 7.30939C7.91992 7.62458 8.1778 7.88246 8.49299 7.88246H9.49585C9.81104 7.88246 10.0689 7.62458 10.0689 7.30939C10.0689 6.99421 9.81104 6.73633 9.49585 6.73633Z" fill="#344B63"/>
<path d="M13.4841 6.73633H12.4813C12.1661 6.73633 11.9082 6.99421 11.9082 7.30939C11.9082 7.62458 12.1661 7.88246 12.4813 7.88246H13.4841C13.7993 7.88246 14.0572 7.62458 14.0572 7.30939C14.0572 6.99421 13.805 6.73633 13.4841 6.73633Z" fill="#344B63"/>
<path d="M17.5071 6.73633H16.5042C16.189 6.73633 15.9312 6.99421 15.9312 7.30939C15.9312 7.62458 16.189 7.88246 16.5042 7.88246H17.5071C17.8223 7.88246 18.0802 7.62458 18.0802 7.30939C18.0802 6.99421 17.8223 6.73633 17.5071 6.73633Z" fill="#344B63"/>
<path d="M9.49585 10.6904H8.49299C8.1778 10.6904 7.91992 10.9483 7.91992 11.2635C7.91992 11.5787 8.1778 11.8366 8.49299 11.8366H9.49585C9.81104 11.8366 10.0689 11.5787 10.0689 11.2635C10.0689 10.9483 9.81104 10.6904 9.49585 10.6904Z" fill="#344B63"/>
<path d="M5.47863 10.6904H4.47004C4.15485 10.6904 3.89697 10.9483 3.89697 11.2635C3.89697 11.5787 4.15485 11.8366 4.47004 11.8366H5.4729C5.78809 11.8366 6.04597 11.5787 6.04597 11.2635C6.04597 10.9483 5.79382 10.6904 5.47863 10.6904Z" fill="#344B63"/>
<path d="M13.4841 10.6904H12.4813C12.1661 10.6904 11.9082 10.9483 11.9082 11.2635C11.9082 11.5787 12.1661 11.8366 12.4813 11.8366H13.4841C13.7993 11.8366 14.0572 11.5787 14.0572 11.2635C14.0572 10.9483 13.805 10.6904 13.4841 10.6904Z" fill="#344B63"/>
<path d="M17.5071 10.6904H16.5042C16.189 10.6904 15.9312 10.9483 15.9312 11.2635C15.9312 11.5787 16.189 11.8366 16.5042 11.8366H17.5071C17.8223 11.8366 18.0802 11.5787 18.0802 11.2635C18.0802 10.9483 17.8223 10.6904 17.5071 10.6904Z" fill="#344B63"/>
<path d="M9.49585 14.5874H8.49299C8.1778 14.5874 7.91992 14.8453 7.91992 15.1605C7.91992 15.4757 8.1778 15.7335 8.49299 15.7335H9.49585C9.81104 15.7335 10.0689 15.4757 10.0689 15.1605C10.0689 14.8453 9.81104 14.5874 9.49585 14.5874Z" fill="#344B63"/>
<path d="M5.47863 14.5874H4.47004C4.15485 14.5874 3.89697 14.8453 3.89697 15.1605C3.89697 15.4757 4.15485 15.7335 4.47004 15.7335H5.4729C5.78809 15.7335 6.04597 15.4757 6.04597 15.1605C6.04597 14.8453 5.79382 14.5874 5.47863 14.5874Z" fill="#344B63"/>
<path d="M13.4841 14.5874H12.4813C12.1661 14.5874 11.9082 14.8453 11.9082 15.1605C11.9082 15.4757 12.1661 15.7335 12.4813 15.7335H13.4841C13.7993 15.7335 14.0572 15.4757 14.0572 15.1605C14.0572 14.8453 13.805 14.5874 13.4841 14.5874Z" fill="#344B63"/>
</svg>
