<svg width="20" height="20" viewBox="0 0 20 20" fill="none" xmlns="http://www.w3.org/2000/svg">
<g clip-path="url(#clip0)">
<path d="M18.3022 11.9756C18.1404 11.5756 17.685 11.3823 17.285 11.5441C16.885 11.7058 16.6918 12.1611 16.8535 12.5612L17.7736 14.8372L15.0409 13.6326C14.8431 13.5454 14.618 13.544 14.4192 13.6288C13.4852 14.0273 12.4848 14.2293 11.4456 14.2293C7.26303 14.2293 4.45339 10.9545 4.45339 7.89592C4.45339 4.40366 7.59006 1.5625 11.4456 1.5625C15.3011 1.5625 18.4377 4.40366 18.4377 7.89592C18.4377 8.16838 18.4123 8.49463 18.3682 8.79096C18.3045 9.21772 18.5988 9.61526 19.0256 9.67893C19.4524 9.74275 19.8499 9.44826 19.9136 9.02151C19.9695 8.6469 20.0002 8.24713 20.0002 7.89592C20.0002 5.77366 19.1016 3.78234 17.4697 2.28878C15.8571 0.81285 13.7177 0 11.4456 0C9.17346 0 7.03409 0.81285 5.42147 2.28875C3.96319 3.62343 3.09101 5.35577 2.92183 7.2237C1.08757 8.43838 0.000270188 10.3848 0.000270188 12.4814C0.000270188 13.7911 0.412887 15.0338 1.19831 16.1032L0.0572232 18.9259C-0.0619563 19.2207 0.0094108 19.5583 0.237731 19.7796C0.38652 19.9239 0.582574 20 0.781675 20C0.888042 20 0.995308 19.9783 1.09664 19.9336L4.38683 18.4832C5.21448 18.7913 6.08936 18.9473 6.99241 18.9473C7.01194 18.9473 7.03112 18.9457 7.0503 18.9443C8.35643 18.9345 9.62623 18.5909 10.726 17.948C11.7111 17.372 12.5214 16.5809 13.0895 15.6465C13.6441 15.5469 14.1862 15.3965 14.7124 15.1953L18.9038 17.043C19.0052 17.0876 19.1124 17.1094 19.2188 17.1094C19.4179 17.1093 19.614 17.0332 19.7628 16.889C19.9911 16.6677 20.0625 16.3301 19.9433 16.0353L18.3022 11.9756ZM6.99248 17.3828C6.98182 17.3828 6.97143 17.384 6.96084 17.3844C6.16311 17.3803 5.3953 17.2235 4.67823 16.9176C4.47944 16.8327 4.25433 16.8341 4.05651 16.9213L2.22695 17.7278L2.81714 16.2678C2.92624 15.9979 2.8762 15.6897 2.68737 15.4682C1.95163 14.6051 1.56277 13.5723 1.56277 12.4814C1.56277 11.2329 2.08796 10.05 3.00687 9.15307C3.29296 10.7126 4.10018 12.2045 5.31788 13.3765C6.83315 14.8348 8.83744 15.6796 11.0017 15.7813C9.9856 16.7815 8.53154 17.3828 6.99248 17.3828Z" fill="#344B63"/>
<path d="M11.4062 8.71093C11.8377 8.71093 12.1875 8.36116 12.1875 7.92969C12.1875 7.49821 11.8377 7.14844 11.4062 7.14844C10.9748 7.14844 10.625 7.49821 10.625 7.92969C10.625 8.36116 10.9748 8.71093 11.4062 8.71093Z" fill="#344B63"/>
<path d="M14.5312 8.71093C14.9627 8.71093 15.3125 8.36116 15.3125 7.92969C15.3125 7.49821 14.9627 7.14844 14.5312 7.14844C14.0998 7.14844 13.75 7.49821 13.75 7.92969C13.75 8.36116 14.0998 8.71093 14.5312 8.71093Z" fill="#344B63"/>
<path d="M8.28125 8.71093C8.71272 8.71093 9.0625 8.36116 9.0625 7.92969C9.0625 7.49821 8.71272 7.14844 8.28125 7.14844C7.84978 7.14844 7.5 7.49821 7.5 7.92969C7.5 8.36116 7.84978 8.71093 8.28125 8.71093Z" fill="#344B63"/>
</g>
<defs>
<clipPath id="clip0">
<rect width="20" height="20" fill="white"/>
</clipPath>
</defs>
</svg>
