<svg width="22" height="24" viewBox="0 0 22 24" fill="none" xmlns="http://www.w3.org/2000/svg">
<path d="M10.9131 12.9319C10.9379 12.9319 10.9628 12.9319 10.9926 12.9319C11.0026 12.9319 11.0125 12.9319 11.0224 12.9319C11.0373 12.9319 11.0572 12.9319 11.0721 12.9319C12.5283 12.907 13.7062 12.3951 14.576 11.416C16.4894 9.25906 16.1713 5.5614 16.1365 5.20853C16.0123 2.55954 14.7599 1.29219 13.7261 0.700766C12.9558 0.258439 12.0562 0.0198799 11.0523 0H11.0175C11.0125 0 11.0026 0 10.9976 0H10.9678C10.4161 0 9.33264 0.0894595 8.29392 0.680886C7.25022 1.27231 5.97791 2.53966 5.85366 5.20853C5.81887 5.5614 5.50079 9.25906 7.41423 11.416C8.27901 12.3951 9.45689 12.907 10.9131 12.9319ZM7.18064 5.33278C7.18064 5.31787 7.18561 5.30296 7.18561 5.29302C7.34962 1.72955 9.87934 1.34686 10.9628 1.34686H10.9827C10.9926 1.34686 11.0075 1.34686 11.0224 1.34686C12.3643 1.37668 14.6455 1.92338 14.7996 5.29302C14.7996 5.30793 14.7996 5.32284 14.8046 5.33278C14.8096 5.36757 15.1574 8.74715 13.577 10.5264C12.9508 11.2321 12.1158 11.58 11.0175 11.59C11.0075 11.59 11.0026 11.59 10.9926 11.59C10.9827 11.59 10.9777 11.59 10.9678 11.59C9.87437 11.58 9.03444 11.2321 8.4132 10.5264C6.83772 8.75709 7.17567 5.3626 7.18064 5.33278Z" fill="#344B63"/>
<path d="M21.2058 19.0647C21.2058 19.0598 21.2058 19.0548 21.2058 19.0498C21.2058 19.0101 21.2008 18.9703 21.2008 18.9256C21.171 17.9415 21.1064 15.6404 18.9494 14.9049C18.9345 14.8999 18.9146 14.8949 18.8997 14.89C16.6582 14.3184 14.7945 13.0262 14.7746 13.0113C14.4714 12.7976 14.054 12.8721 13.8403 13.1753C13.6265 13.4785 13.7011 13.896 14.0043 14.1097C14.0888 14.1693 16.0668 15.546 18.5419 16.1821C19.6999 16.5947 19.8291 17.8322 19.8639 18.9653C19.8639 19.0101 19.8639 19.0498 19.8688 19.0896C19.8738 19.5369 19.844 20.2277 19.7645 20.6253C18.9593 21.0825 15.8034 22.663 11.0024 22.663C6.22129 22.663 3.04547 21.0776 2.23537 20.6203C2.15585 20.2227 2.12106 19.5319 2.131 19.0846C2.131 19.0449 2.13597 19.0051 2.13597 18.9604C2.17076 17.8272 2.29998 16.5897 3.45798 16.1772C5.93303 15.541 7.91108 14.1594 7.99557 14.1047C8.29874 13.891 8.37329 13.4735 8.15958 13.1703C7.94587 12.8672 7.52839 12.7926 7.22522 13.0063C7.20534 13.0212 5.35154 14.3134 3.10014 14.885C3.08026 14.89 3.06536 14.8949 3.05045 14.8999C0.893477 15.6404 0.828867 17.9415 0.799047 18.9206C0.799047 18.9653 0.799047 19.0051 0.794077 19.0449C0.794077 19.0498 0.794077 19.0548 0.794077 19.0598C0.789107 19.3182 0.784137 20.6452 1.04755 21.3112C1.09725 21.4404 1.18671 21.5497 1.30598 21.6243C1.45508 21.7237 5.02849 23.9999 11.0074 23.9999C16.9862 23.9999 20.5597 21.7187 20.7088 21.6243C20.8231 21.5497 20.9175 21.4404 20.9672 21.3112C21.2157 20.6502 21.2107 19.3232 21.2058 19.0647Z" fill="#344B63"/>
</svg>
