<svg width="25" height="25" viewBox="0 0 25 25" fill="none" xmlns="http://www.w3.org/2000/svg">
<path d="M9.63535 8.3334H1.82285C0.81768 8.3334 0 7.51572 0 6.51035V1.82285C0 0.81768 0.81768 0 1.82285 0H9.63535C10.6407 0 11.4584 0.81768 11.4584 1.82285V6.51035C11.4584 7.51572 10.6407 8.3334 9.63535 8.3334ZM1.82285 1.5625C1.67923 1.5625 1.5625 1.67923 1.5625 1.82285V6.51035C1.5625 6.65417 1.67923 6.7709 1.82285 6.7709H9.63535C9.77917 6.7709 9.8959 6.65417 9.8959 6.51035V1.82285C9.8959 1.67923 9.77917 1.5625 9.63535 1.5625H1.82285Z" fill="white"/>
<path d="M9.63535 24.9999H1.82285C0.81768 24.9999 0 24.1822 0 23.177V12.2395C0 11.2342 0.81768 10.4165 1.82285 10.4165H9.63535C10.6407 10.4165 11.4584 11.2342 11.4584 12.2395V23.177C11.4584 24.1822 10.6407 24.9999 9.63535 24.9999ZM1.82285 11.979C1.67923 11.979 1.5625 12.0957 1.5625 12.2395V23.177C1.5625 23.3207 1.67923 23.4374 1.82285 23.4374H9.63535C9.77917 23.4374 9.8959 23.3207 9.8959 23.177V12.2395C9.8959 12.0957 9.77917 11.979 9.63535 11.979H1.82285Z" fill="white"/>
<path d="M23.177 24.9999H15.3645C14.3592 24.9999 13.5415 24.1822 13.5415 23.177V18.4895C13.5415 17.4842 14.3592 16.6665 15.3645 16.6665H23.177C24.1822 16.6665 24.9999 17.4842 24.9999 18.4895V23.177C24.9999 24.1822 24.1822 24.9999 23.177 24.9999ZM15.3645 18.229C15.2207 18.229 15.104 18.3457 15.104 18.4895V23.177C15.104 23.3207 15.2207 23.4374 15.3645 23.4374H23.177C23.3207 23.4374 23.4374 23.3207 23.4374 23.177V18.4895C23.4374 18.3457 23.3207 18.229 23.177 18.229H15.3645Z" fill="white"/>
<path d="M23.177 14.5834H15.3645C14.3592 14.5834 13.5415 13.7657 13.5415 12.7604V1.82285C13.5415 0.81768 14.3592 0 15.3645 0H23.177C24.1822 0 24.9999 0.81768 24.9999 1.82285V12.7604C24.9999 13.7657 24.1822 14.5834 23.177 14.5834ZM15.3645 1.5625C15.2207 1.5625 15.104 1.67923 15.104 1.82285V12.7604C15.104 12.9042 15.2207 13.0209 15.3645 13.0209H23.177C23.3207 13.0209 23.4374 12.9042 23.4374 12.7604V1.82285C23.4374 1.67923 23.3207 1.5625 23.177 1.5625H15.3645Z" fill="white"/>
</svg>
