<svg width="18" height="18" viewBox="0 0 18 18" fill="none" xmlns="http://www.w3.org/2000/svg">
<g clip-path="url(#clip0)">
<path d="M17.6857 5.52936L16.1973 4.04091L17.3162 2.92241C17.4151 2.82359 17.4707 2.68968 17.4707 2.54962C17.4707 2.40955 17.4151 2.27564 17.3162 2.17678L15.8181 0.678702C15.6204 0.480947 15.2702 0.480947 15.0724 0.678702L13.9539 1.79762L12.4653 0.308892C12.0534 -0.102964 11.3856 -0.102964 10.9737 0.308892C10.5618 0.720749 10.5618 1.38854 10.9737 1.80043L16.1941 7.0209C16.6061 7.43276 17.2739 7.43276 17.6857 7.0209C18.0976 6.60905 18.0976 5.94125 17.6857 5.52936Z" fill="#344B63"/>
<path d="M7.02624 16.1995L1.80584 10.9791C1.39391 10.5672 0.72619 10.5672 0.314263 10.9791C-0.097593 11.391 -0.097593 12.0588 0.314263 12.4706L1.80296 13.9593L0.686217 15.0756C0.587322 15.1745 0.531705 15.3084 0.531705 15.4484C0.531705 15.5885 0.587322 15.7224 0.686217 15.8213L2.1843 17.3189C2.28727 17.4219 2.4222 17.4734 2.55713 17.4734C2.69206 17.4734 2.82699 17.4219 2.92996 17.3189L4.04625 16.2026L5.5347 17.6911C5.94655 18.103 6.61435 18.103 7.02624 17.6911C7.43816 17.2792 7.43816 16.6114 7.02624 16.1995Z" fill="#344B63"/>
<path d="M9.48206 6.27515L6.28052 9.48759L8.51786 11.7249L11.7194 8.51242L9.48206 6.27515Z" fill="#344B63"/>
<path d="M16.1941 8.51236L9.48213 1.80035C9.07027 1.38849 8.40244 1.38849 7.99059 1.80035C7.57866 2.21227 7.57866 2.88 7.99059 3.29192L14.7026 10.0039C15.1144 10.4158 15.7822 10.4158 16.1941 10.0039C16.6061 9.59208 16.6061 8.92428 16.1941 8.51236Z" fill="#344B63"/>
<path d="M10.0096 14.7079L3.29752 7.9959C2.88567 7.58405 2.21787 7.58405 1.80602 7.9959C1.39409 8.40783 1.39409 9.07562 1.80602 9.48748L8.51803 16.1995C8.92988 16.6113 9.59768 16.6113 10.0096 16.1995C10.4215 15.7876 10.4215 15.1198 10.0096 14.7079Z" fill="#344B63"/>
</g>
<defs>
<clipPath id="clip0">
<rect width="18" height="18" fill="white"/>
</clipPath>
</defs>
</svg>
