<svg width="18" height="24" viewBox="0 0 18 24" fill="none" xmlns="http://www.w3.org/2000/svg">
<path d="M17.5964 4.4C17.5973 4.29445 17.5565 4.1928 17.4828 4.1172L13.4828 0.1172C13.4075 0.043 13.3056 0.0021 13.2 0.0036V0H1.2C0.53725 0 0 0.53725 0 1.2V22.8C0 23.4627 0.53725 24 1.2 24H16.4C17.0627 24 17.6 23.4627 17.6 22.8V4.4H17.5964ZM13.6 1.3656L16.2344 4H14C13.7791 4 13.6 3.8209 13.6 3.6V1.3656ZM16.8 22.8C16.8 23.0209 16.6209 23.2 16.4 23.2H1.2C0.9791 23.2 0.8 23.0209 0.8 22.8V1.2C0.8 0.9791 0.9791 0.8 1.2 0.8H12.8V3.6C12.8 4.26275 13.3372 4.8 14 4.8H16.8V22.8Z" fill="#344B63"/>
<path d="M4.00005 10.8C3.3373 10.8 2.80005 11.3373 2.80005 12C2.80005 12.6628 3.3373 13.2 4.00005 13.2C4.6628 13.2 5.20005 12.6628 5.20005 12C5.20005 11.3373 4.6628 10.8 4.00005 10.8ZM4.00005 12.4C3.77915 12.4 3.60005 12.2209 3.60005 12C3.60005 11.7791 3.77915 11.6 4.00005 11.6C4.22095 11.6 4.40005 11.7791 4.40005 12C4.40005 12.2209 4.22095 12.4 4.00005 12.4Z" fill="#344B63"/>
<path d="M14.8001 11.6001H6.80005V12.4001H14.8001V11.6001Z" fill="#344B63"/>
<path d="M4.00005 6.80005C3.3373 6.80005 2.80005 7.3373 2.80005 8.00005C2.80005 8.6628 3.3373 9.20005 4.00005 9.20005C4.6628 9.20005 5.20005 8.6628 5.20005 8.00005C5.20005 7.3373 4.6628 6.80005 4.00005 6.80005ZM4.00005 8.40005C3.77915 8.40005 3.60005 8.22095 3.60005 8.00005C3.60005 7.77915 3.77915 7.60005 4.00005 7.60005C4.22095 7.60005 4.40005 7.77915 4.40005 8.00005C4.40005 8.22095 4.22095 8.40005 4.00005 8.40005Z" fill="#344B63"/>
<path d="M14.8001 7.6001H6.80005V8.4001H14.8001V7.6001Z" fill="#344B63"/>
<path d="M4.00005 14.8C3.3373 14.8 2.80005 15.3373 2.80005 16C2.80005 16.6628 3.3373 17.2 4.00005 17.2C4.6628 17.2 5.20005 16.6628 5.20005 16C5.20005 15.3373 4.6628 14.8 4.00005 14.8ZM4.00005 16.4C3.77915 16.4 3.60005 16.2209 3.60005 16C3.60005 15.7791 3.77915 15.6 4.00005 15.6C4.22095 15.6 4.40005 15.7791 4.40005 16C4.40005 16.2209 4.22095 16.4 4.00005 16.4Z" fill="#344B63"/>
<path d="M14.8001 15.6001H6.80005V16.4001H14.8001V15.6001Z" fill="#344B63"/>
<path d="M4.00005 18.8C3.3373 18.8 2.80005 19.3373 2.80005 20C2.80005 20.6628 3.3373 21.2 4.00005 21.2C4.6628 21.2 5.20005 20.6628 5.20005 20C5.20005 19.3373 4.6628 18.8 4.00005 18.8ZM4.00005 20.4C3.77915 20.4 3.60005 20.2209 3.60005 20C3.60005 19.7791 3.77915 19.6 4.00005 19.6C4.22095 19.6 4.40005 19.7791 4.40005 20C4.40005 20.2209 4.22095 20.4 4.00005 20.4Z" fill="#344B63"/>
<path d="M14.8001 19.6001H6.80005V20.4001H14.8001V19.6001Z" fill="#344B63"/>
</svg>
