<svg width="25" height="18" viewBox="0 0 25 18" fill="none" xmlns="http://www.w3.org/2000/svg">
<path d="M24.4531 7.04845L21.1719 0.458537C21.0319 0.177577 20.7451 0 20.4313 0H4.10834C3.79454 0 3.50778 0.177577 3.36774 0.458537L0.0865599 7.04845C0.0295243 7.16286 0 7.28915 0 7.41707V16.5436C0 17.0005 0.3703 17.3708 0.82716 17.3708H23.7125C24.1693 17.3708 24.5396 17.0005 24.5396 16.5436V7.41707C24.5397 7.28915 24.5102 7.16286 24.4531 7.04845ZM4.62036 1.65437H19.9191L22.3904 6.61747H17.0399C16.6489 6.61747 16.3106 6.8946 16.2298 7.27702C16.2003 7.41683 15.4691 10.6982 12.132 10.6982C8.79489 10.6982 8.06363 7.41683 8.03469 7.28033C7.95666 6.8946 7.61751 6.61747 7.22406 6.61747H2.14928L4.62036 1.65437ZM22.8853 15.7165H1.65437V8.27184H6.59624C7.17747 9.9656 8.83184 12.3526 12.132 12.3526C15.4324 12.3526 17.0868 9.96565 17.6678 8.27184H22.8853V15.7165Z" fill="#344B63"/>
</svg>
