<svg width="23" height="23" viewBox="0 0 23 23" fill="none" xmlns="http://www.w3.org/2000/svg">
<path d="M22.2502 12.25H7.75C7.336 12.25 7 11.914 7 11.5C7 11.086 7.336 10.75 7.75 10.75H22.2502C22.6642 10.75 23.0002 11.086 23.0002 11.5C23.0002 11.914 22.6642 12.25 22.2502 12.25Z" fill="#344B63"/>
<path d="M11.75 16.2499C11.5579 16.2499 11.366 16.177 11.2199 16.03L7.21997 12.03C6.927 11.7369 6.927 11.2619 7.21997 10.9689L11.2199 6.96899C11.5129 6.67603 11.9878 6.67603 12.281 6.96899C12.574 7.26196 12.574 7.73694 12.281 8.02991L8.81097 11.4999L12.281 14.97C12.574 15.263 12.574 15.7379 12.281 16.0309C12.134 16.177 11.9419 16.2499 11.75 16.2499Z" fill="#344B63"/>
<path d="M11.0001 22.5001C4.93506 22.5001 0 17.5651 0 11.5001C0 5.43506 4.93506 0.5 11.0001 0.5C15.551 0.5 19.569 3.23798 21.238 7.47614C21.39 7.86102 21.2 8.29608 20.8151 8.44897C20.43 8.59912 19.9949 8.41199 19.842 8.02509C18.401 4.36499 14.9301 2 11.0001 2C5.76196 2 1.5 6.26215 1.5 11.5001C1.5 16.738 5.76196 21.0001 11.0001 21.0001C14.9301 21.0001 18.401 18.6351 19.842 14.9761C19.994 14.5891 20.4291 14.4021 20.8151 14.5521C21.2 14.704 21.39 15.14 21.238 15.5251C19.569 19.7621 15.551 22.5001 11.0001 22.5001Z" fill="#344B63"/>
</svg>
