<svg width="18" height="18" viewBox="0 0 18 18" fill="none" xmlns="http://www.w3.org/2000/svg">
<path d="M16.6089 1.39087C15.7125 0.493973 14.5201 0 13.2518 0C11.9835 0 10.7915 0.493973 9.8947 1.39087L5.64272 5.64272L1.39059 9.89511C0.493973 10.792 0 11.9844 0 13.2524C0 14.5204 0.493973 15.7128 1.39059 16.6091C2.28694 17.506 3.47937 18 4.7476 18C6.01584 18 7.20799 17.506 8.10461 16.6091L12.3567 12.3573L16.6089 8.10489C17.5055 7.20799 17.9993 6.01556 17.9993 4.7476C17.9993 3.47964 17.5055 2.28722 16.6089 1.39087ZM7.2095 15.714C6.5517 16.3717 5.67732 16.7341 4.7476 16.7341C3.81747 16.7341 2.94337 16.3718 2.28571 15.714C1.62804 15.0562 1.26604 14.1823 1.26604 13.2525C1.26604 12.3228 1.62831 11.448 2.28571 10.7904L6.09027 6.98552L11.0141 11.9099L7.2095 15.714ZM15.7137 7.20978L11.9092 11.0146L6.98538 6.09027L10.7899 2.28598C11.4476 1.62831 12.322 1.2659 13.2518 1.2659C14.1818 1.2659 15.0559 1.62817 15.7136 2.28598C16.3713 2.94379 16.7333 3.81775 16.7333 4.74747C16.7333 5.67719 16.3711 6.55197 15.7137 7.20978Z" fill="#344B63"/>
<path d="M14.9447 4.26846C14.7429 4.26846 14.5444 4.17206 14.4218 3.99339C14.1256 3.56067 13.637 3.3029 13.1143 3.3029C12.6915 3.3029 12.2943 3.46729 11.9951 3.76653C11.7477 4.01372 11.3471 4.01372 11.0999 3.76653C10.8528 3.5192 10.8528 3.11861 11.0999 2.87141C11.6381 2.33295 12.3533 2.03687 13.1143 2.03687C14.0549 2.03687 14.9342 2.50049 15.4665 3.27763C15.6639 3.56616 15.5905 3.96002 15.3018 4.15791C15.1926 4.23262 15.0681 4.26846 14.9447 4.26846Z" fill="#344B63"/>
</svg>
