<svg width="21" height="16" viewBox="0 0 21 16" fill="none" xmlns="http://www.w3.org/2000/svg">
<path d="M19.1543 0H1.8457C0.829254 0 0 0.828351 0 1.8457V14.1504C0 15.1643 0.825563 15.9961 1.8457 15.9961H19.1543C20.1682 15.9961 21 15.1705 21 14.1504V1.8457C21 0.831797 20.1744 0 19.1543 0ZM18.8994 1.23047L10.5391 9.59081L2.10652 1.23047H18.8994ZM1.23047 13.8956V2.09463L7.15637 7.96971L1.23047 13.8956ZM2.10053 14.7656L8.03016 8.836L10.1079 10.8959C10.3484 11.1343 10.7365 11.1336 10.9761 10.894L13.002 8.86811L18.8995 14.7656H2.10053ZM19.7695 13.8956L13.872 7.99805L19.7695 2.10049V13.8956Z" fill="#344B63"/>
</svg>
