<svg width="20" height="23" viewBox="0 0 20 23" fill="none" xmlns="http://www.w3.org/2000/svg">
<path d="M10.7493 3.63688V4.19553L11.2846 4.35548C13.7448 5.09064 15.541 7.37133 15.541 10.0625V12.4651C15.541 14.0768 15.9795 15.6602 16.8095 17.0428L18.2086 19.375H0.95707L2.3569 17.0417L2.35701 17.0415C3.18578 15.6592 3.62432 14.0769 3.62432 12.4651V10.0625C3.62432 7.37132 5.42056 5.09064 7.8807 4.35548L8.41596 4.19552V3.63688V1.91668C8.41596 1.27384 8.93979 0.75 9.58264 0.75C10.2255 0.75 10.7493 1.27384 10.7493 1.91668V3.63688ZM0.71146 19.7845L0.711697 19.7841C0.711616 19.7842 0.711535 19.7843 0.711454 19.7845L0.479415 19.6453L0.71146 19.7845Z" stroke="#344B63" stroke-width="1.5"/>
<path d="M9.5827 22.2499C9.06696 22.2499 8.58583 22.0971 8.18098 21.8333H10.9845C10.5796 22.0971 10.0984 22.2499 9.5827 22.2499Z" stroke="#344B63" stroke-width="1.5" stroke-linejoin="round"/>
</svg>
