<svg width="21" height="21" viewBox="0 0 21 21" fill="none" xmlns="http://www.w3.org/2000/svg">
<path d="M4.48761 3.65398H0.617642C0.276485 3.65398 0 3.37731 0 3.03634C0 2.69537 0.276485 2.4187 0.617642 2.4187H4.48761C4.82876 2.4187 5.10525 2.69537 5.10525 3.03634C5.10525 3.37731 4.82876 3.65398 4.48761 3.65398Z" fill="#344B63"/>
<path d="M6.69898 5.8653C5.13896 5.8653 3.86987 4.59621 3.86987 3.03633C3.86987 1.47612 5.13896 0.207031 6.69898 0.207031C8.259 0.207031 9.52809 1.47612 9.52809 3.03633C9.52809 4.59625 8.259 5.8653 6.69898 5.8653ZM6.69898 1.44236C5.82013 1.44236 5.10516 2.15747 5.10516 3.03633C5.10516 3.91518 5.82013 4.62997 6.69898 4.62997C7.57784 4.62997 8.29281 3.91518 8.29281 3.03633C8.29281 2.15747 7.57784 1.44236 6.69898 1.44236Z" fill="#344B63"/>
<path d="M20.3824 3.65398H11.1511C10.8099 3.65398 10.5334 3.37731 10.5334 3.03634C10.5334 2.69537 10.8099 2.4187 11.1511 2.4187H20.3823C20.7235 2.4187 21 2.69537 21 3.03634C21 3.37731 20.7235 3.65398 20.3824 3.65398Z" fill="#344B63"/>
<path d="M14.992 13.3288C13.4319 13.3288 12.1628 12.0597 12.1628 10.4999C12.1628 8.93999 13.4319 7.6709 14.992 7.6709C16.552 7.6709 17.8211 8.93999 17.8211 10.4999C17.8211 12.0597 16.552 13.3288 14.992 13.3288ZM14.992 8.90623C14.1131 8.90623 13.3981 9.62101 13.3981 10.4999C13.3981 11.3787 14.1131 12.0935 14.992 12.0935C15.8708 12.0935 16.5858 11.3787 16.5858 10.4999C16.5858 9.62101 15.8708 8.90623 14.992 8.90623Z" fill="#344B63"/>
<path d="M10.5401 11.1176H0.617642C0.276485 11.1176 0 10.8409 0 10.5C0 10.159 0.276485 9.88232 0.617642 9.88232H10.5401C10.8812 9.88232 11.1577 10.159 11.1577 10.5C11.1577 10.8409 10.8812 11.1176 10.5401 11.1176Z" fill="#344B63"/>
<path d="M20.3823 11.1176H17.2033C16.8622 11.1176 16.5857 10.8409 16.5857 10.5C16.5857 10.159 16.8622 9.88232 17.2033 9.88232H20.3823C20.7234 9.88232 20.9999 10.159 20.9999 10.5C20.9999 10.8409 20.7234 11.1176 20.3823 11.1176Z" fill="#344B63"/>
<path d="M6.00806 20.7928C4.44804 20.7928 3.17896 19.5237 3.17896 17.9635C3.17896 16.4036 4.44804 15.1345 6.00806 15.1345C7.56808 15.1345 8.83717 16.4036 8.83717 17.9635C8.83717 19.5237 7.56808 20.7928 6.00806 20.7928ZM6.00806 16.3699C5.12921 16.3699 4.41424 17.0846 4.41424 17.9635C4.41424 18.8424 5.12921 19.5575 6.00806 19.5575C6.88692 19.5575 7.60189 18.8424 7.60189 17.9635C7.60189 17.0846 6.88692 16.3699 6.00806 16.3699Z" fill="#344B63"/>
<path d="M20.3823 18.5812H10.4599C10.1188 18.5812 9.84229 18.3046 9.84229 17.9636C9.84229 17.6226 10.1188 17.3459 10.4599 17.3459H20.3823C20.7235 17.3459 21 17.6226 21 17.9636C21 18.3046 20.7235 18.5812 20.3823 18.5812Z" fill="#344B63"/>
<path d="M3.7966 18.581H0.617642C0.276485 18.581 0 18.3044 0 17.9633C0 17.6224 0.276485 17.3457 0.617642 17.3457H3.7966C4.13776 17.3457 4.41424 17.6224 4.41424 17.9633C4.41424 18.3044 4.13776 18.581 3.7966 18.581Z" fill="#344B63"/>
</svg>
