<svg width="25" height="25" viewBox="0 0 25 25" fill="none" xmlns="http://www.w3.org/2000/svg">
<g clip-path="url(#clip0)">
<path d="M18.335 13.3789C15.131 13.3789 12.5244 15.9855 12.5244 19.1895C12.5244 22.3934 15.131 25 18.335 25C21.5658 25 24.1943 22.3934 24.1943 19.1895C24.1943 15.9855 21.5658 13.3789 18.335 13.3789ZM20.1183 18.4865L18.1652 20.8302C18.0251 20.9982 17.8185 21.0938 17.6026 21.0938C17.5745 21.0938 17.5463 21.0921 17.5181 21.0889C17.2726 21.0604 17.058 20.91 16.9474 20.6889L16.1662 19.1264C15.9853 18.7646 16.1319 18.3246 16.4937 18.1438C16.8555 17.9627 17.2955 18.1095 17.4764 18.4713L17.7568 19.0321L18.993 17.5487C19.252 17.238 19.7138 17.196 20.0245 17.4549C20.3353 17.7139 20.3773 18.1757 20.1183 18.4865Z" fill="#344B63"/>
<path d="M18.0193 4.17251L15.0475 1.09932C15.0461 1.09785 15.0446 1.09634 15.0432 1.09487C14.359 0.399072 13.4069 0 12.4312 0H3.00293C1.79136 0 0.805664 0.985693 0.805664 2.19727V21.1914C0.805664 22.403 1.79136 23.3887 3.00293 23.3887H12.397C11.555 22.2016 11.0596 20.7523 11.0596 19.1895C11.0596 15.1778 14.3233 11.9141 18.335 11.9141C18.5821 11.9141 18.8264 11.9265 19.0674 11.9503V6.7373C19.0674 5.77202 18.6952 4.86133 18.0193 4.17251ZM8.56934 16.3574H4.66309C4.25859 16.3574 3.93066 16.0295 3.93066 15.625C3.93066 15.2205 4.25859 14.8926 4.66309 14.8926H8.56934C8.97383 14.8926 9.30176 15.2205 9.30176 15.625C9.30176 16.0295 8.97383 16.3574 8.56934 16.3574ZM8.56934 12.4512H4.66309C4.25859 12.4512 3.93066 12.1232 3.93066 11.7188C3.93066 11.3143 4.25859 10.9863 4.66309 10.9863H8.56934C8.97383 10.9863 9.30176 11.3143 9.30176 11.7188C9.30176 12.1232 8.97383 12.4512 8.56934 12.4512ZM8.56934 8.54492H4.66309C4.25859 8.54492 3.93066 8.21699 3.93066 7.8125C3.93066 7.40801 4.25859 7.08008 4.66309 7.08008H8.56934C8.97383 7.08008 9.30176 7.40801 9.30176 7.8125C9.30176 8.21699 8.97383 8.54492 8.56934 8.54492ZM13.2568 12.4512H12.4756C12.0711 12.4512 11.7432 12.1232 11.7432 11.7188C11.7432 11.3143 12.0711 10.9863 12.4756 10.9863H13.2568C13.6613 10.9863 13.9893 11.3143 13.9893 11.7188C13.9893 12.1232 13.6613 12.4512 13.2568 12.4512ZM13.2568 8.54492H12.4756C12.0711 8.54492 11.7432 8.21699 11.7432 7.8125C11.7432 7.40801 12.0711 7.08008 12.4756 7.08008H13.2568C13.6613 7.08008 13.9893 7.40801 13.9893 7.8125C13.9893 8.21699 13.6613 8.54492 13.2568 8.54492Z" fill="#344B63"/>
</g>
<defs>
<clipPath id="clip0">
<rect width="25" height="25" fill="white"/>
</clipPath>
</defs>
</svg>
