<svg width="23" height="23" viewBox="0 0 23 23" fill="none" xmlns="http://www.w3.org/2000/svg">
<g clip-path="url(#clip0)">
<path d="M18.893 17.3276L18.893 17.3276L17.0961 19.4839L17.0961 19.4839C16.8716 19.7532 16.5404 19.9062 16.1944 19.9062C16.1494 19.9062 16.1043 19.9037 16.0591 19.8984L16.0589 19.8984C15.6655 19.8527 15.3216 19.6117 15.1444 19.2574L14.4257 17.8199C14.4257 17.8199 14.4257 17.8199 14.4257 17.8199C14.1357 17.2401 14.3708 16.535 14.9505 16.2451L18.893 17.3276ZM18.893 17.3276C19.308 16.8296 19.2407 16.0894 18.7426 15.6744L18.7426 15.6743C18.2446 15.2595 17.5045 15.3267 17.0895 15.8246L17.0894 15.8247M18.893 17.3276L17.0894 15.8247M17.0894 15.8247L16.4318 16.6138C16.1024 16.1502 15.4753 15.9826 14.9506 16.245L17.0894 15.8247ZM12.0225 17.6543C12.0225 14.9828 14.1967 12.8086 16.8682 12.8086C19.5684 12.8086 21.7588 14.9867 21.7588 17.6543C21.7588 20.3219 19.5684 22.5 16.8682 22.5C14.1967 22.5 12.0225 20.3258 12.0225 17.6543Z" stroke="#344B63"/>
<path d="M16.2183 4.18628L16.2183 4.18629L16.2209 4.18889C16.7509 4.72912 17.042 5.44122 17.042 6.19832V10.463C16.9842 10.4616 16.9263 10.4609 16.8682 10.4609C15.4887 10.4609 14.1987 10.8511 13.1029 11.5269C13.2698 11.3242 13.3701 11.0644 13.3701 10.7812C13.3701 10.133 12.8446 9.60742 12.1963 9.60742H11.4775C10.8293 9.60742 10.3037 10.133 10.3037 10.7812C10.3037 11.4295 10.8293 11.9551 11.4775 11.9551H12.1963C12.3225 11.9551 12.4441 11.9351 12.5581 11.8983C10.8085 13.2116 9.6748 15.3029 9.6748 17.6543C9.6748 18.8682 9.97734 20.0133 10.5107 21.0176H2.7627C1.92419 21.0176 1.24121 20.3346 1.24121 19.4961V2.02148C1.24121 1.18298 1.92419 0.5 2.7627 0.5H11.4367C12.2003 0.5 12.9477 0.8133 13.4832 1.35786L13.4842 1.35888L13.4843 1.35894L16.2183 4.18628ZM4.29004 15.5488H7.88379C8.53206 15.5488 9.05762 15.0233 9.05762 14.375C9.05762 13.7267 8.53206 13.2012 7.88379 13.2012H4.29004C3.64176 13.2012 3.11621 13.7267 3.11621 14.375C3.11621 15.0233 3.64176 15.5488 4.29004 15.5488ZM4.29004 11.9551H7.88379C8.53206 11.9551 9.05762 11.4295 9.05762 10.7812C9.05762 10.133 8.53206 9.60742 7.88379 9.60742H4.29004C3.64176 9.60742 3.11621 10.133 3.11621 10.7812C3.11621 11.4295 3.64176 11.9551 4.29004 11.9551ZM4.29004 8.36133H7.88379C8.53206 8.36133 9.05762 7.83578 9.05762 7.1875C9.05762 6.53922 8.53206 6.01367 7.88379 6.01367H4.29004C3.64176 6.01367 3.11621 6.53922 3.11621 7.1875C3.11621 7.83578 3.64176 8.36133 4.29004 8.36133ZM11.4775 8.36133H12.1963C12.8446 8.36133 13.3701 7.83577 13.3701 7.1875C13.3701 6.53923 12.8446 6.01367 12.1963 6.01367H11.4775C10.8293 6.01367 10.3037 6.53923 10.3037 7.1875C10.3037 7.83577 10.8293 8.36133 11.4775 8.36133Z" stroke="#344B63"/>
</g>
<defs>
<clipPath id="clip0">
<rect width="23" height="23" fill="white"/>
</clipPath>
</defs>
</svg>
