<svg width="23" height="23" viewBox="0 0 23 23" fill="none" xmlns="http://www.w3.org/2000/svg">
<circle cx="11.5" cy="11.5" r="11.5" fill="white"/>
<path d="M14.907 8.12825L12.282 5.12825C12.2108 5.04725 12.108 5 12 5C11.892 5 11.7893 5.04725 11.718 5.12825L9.09305 8.12825C8.9963 8.23925 8.9723 8.396 9.0338 8.53025C9.09455 8.66375 9.22805 8.75 9.37505 8.75H10.875V13.625C10.875 13.832 11.043 14 11.25 14H12.75C12.957 14 13.125 13.832 13.125 13.625V8.75H14.625C14.772 8.75 14.9055 8.6645 14.9663 8.53025C15.027 8.396 15.0045 8.2385 14.907 8.12825Z" fill="#344B63"/>
<path d="M16.125 13.25V15.5H7.875V13.25H6.375V16.25C6.375 16.6647 6.711 17 7.125 17H16.875C17.2897 17 17.625 16.6647 17.625 16.25V13.25H16.125Z" fill="#344B63"/>
</svg>
